<svg width="52" height="42" viewBox="0 0 52 42" fill="none" xmlns="http://www.w3.org/2000/svg">
<path d="M32.6456 25.3991C32.34 23.6938 31.5835 22.0965 30.4512 20.7663C29.5051 19.6715 28.4838 18.6412 27.3944 17.6824C26.8086 17.1557 26.2189 16.6358 25.6392 16.0944C23.7069 14.2762 22.1024 12.2174 21.6331 9.57132C21.5103 9.02359 21.5053 8.45684 21.6184 7.9071L20.4285 9.50223C20.2006 9.83624 19.9873 10.1731 19.7917 10.5245C18.8452 12.2154 18.4545 14.1509 18.6727 16.0672C18.8908 17.9834 19.7074 19.7872 21.011 21.2327C21.9569 22.3265 22.978 23.3559 24.0673 24.3135C24.6512 24.842 25.2467 25.3631 25.8187 25.9029C27.7576 27.7198 29.3598 29.7814 29.8336 32.4275C29.9503 32.9754 29.9553 33.5405 29.8482 34.0903L31.0337 32.4951C31.2602 32.1626 31.4777 31.8229 31.6722 31.4687C32.6965 29.6141 33.04 27.4718 32.6456 25.3991Z" fill="url(#paint0_linear)"/>
<path style="mix-blend-mode:overlay" opacity="0.8" d="M29.8422 26.0728C28.3354 23.5419 25.9026 22.1396 23.9097 20.0723C21.7241 17.8034 20.277 15.1689 20.5534 11.9842C20.7362 10.7062 21.0164 9.44351 21.3918 8.20654C21.0507 8.66875 20.4284 9.50221 20.4284 9.50221C20.2005 9.83621 19.9872 10.1731 19.7915 10.5245C18.8451 12.2154 18.4543 14.1509 18.6725 16.0671C18.8907 17.9834 19.7073 19.7872 21.0108 21.2326C21.9568 22.3265 22.9779 23.3559 24.0671 24.3135C24.6511 24.8419 25.2465 25.3631 25.8186 25.9029C27.7575 27.7198 29.3597 29.7814 29.8335 32.4275C29.9502 32.9754 29.9553 33.5405 29.8482 34.0903C30.6241 32.8909 31.0355 31.5003 31.0344 30.0807C31.0334 28.6611 30.6199 27.271 29.8422 26.0728Z" fill="url(#paint1_linear)"/>
<path d="M21.6008 10.5648C22.0509 13.3779 24.213 15.1803 26.1691 17.121C26.9134 17.8611 28.287 19.0689 29.0156 19.8261C31.0542 21.9454 32.3251 23.9752 32.3398 26.9971C32.3624 28.0919 32.2296 29.1844 31.9454 30.2435C31.5387 31.4268 30.9623 32.5475 30.2333 33.5721C30.5808 33.1071 31.0337 32.495 31.0337 32.495C31.2602 32.1625 31.4777 31.8228 31.6722 31.4686C32.6965 29.614 33.0402 27.4717 32.6459 25.3991C32.3402 23.6937 31.5836 22.0964 30.4512 20.7663C29.5051 19.6715 28.4838 18.6412 27.3944 17.6824C26.8086 17.1557 26.2189 16.6358 25.6392 16.0944C23.7069 14.2762 22.1024 12.2174 21.6331 9.57132C21.5103 9.02359 21.5053 8.45684 21.6184 7.9071C21.2271 8.61253 21.4816 9.83337 21.6008 10.5648Z" fill="url(#paint2_linear)"/>
<path d="M29.9039 33.8054C30.0958 32.693 30.0008 31.5513 29.6275 30.484C28.0206 26.0124 23.4965 24 20.8683 20.3127C19.9706 19.0893 19.3847 17.6735 19.1595 16.1834C18.9343 14.6934 19.0763 13.1722 19.5736 11.7467C19.8193 11.0254 19.959 10.6511 21.618 7.9071C21.2695 8.37643 20.4282 9.50223 20.4282 9.50223C20.2003 9.83624 19.9869 10.1731 19.7913 10.5245C18.8449 12.2154 18.4541 14.1509 18.6723 16.0672C18.8905 17.9834 19.707 19.7872 21.0106 21.2327C21.9565 22.3265 22.9777 23.3559 24.0669 24.3135C24.6508 24.842 25.2463 25.3631 25.8183 25.9029C27.7572 27.7198 29.3594 29.7814 29.8332 32.4275C29.9176 32.8819 29.9414 33.345 29.9039 33.8054Z" fill="url(#paint3_linear)"/>
<path d="M25.3159 10.8872C26.0164 8.41668 27.5045 6.70342 29.1305 4.73696C29.9982 3.68599 30.9572 2.71452 31.875 1.7092C32.1248 1.4357 32.3603 1.1924 32.5749 0.96637H30.1658C30.0981 1.01975 30.0306 1.07444 29.9481 1.14066C28.3267 2.58454 26.908 4.23241 25.729 6.04122C25.3251 6.65856 24.9555 7.29678 24.6217 7.95308C24.5187 8.19794 24.3967 8.44263 24.3055 8.69314C24.2071 8.93832 24.1212 9.18819 24.0484 9.44179C24.01 9.56565 23.9703 9.6909 23.9409 9.81616C23.91 9.94132 23.8851 10.0667 23.8571 10.1904C23.7591 10.6682 23.7089 11.1542 23.707 11.6416C23.7159 11.8749 23.7159 11.9986 23.7379 12.2174C23.76 12.3601 23.7849 12.4952 23.8129 12.6292C24.192 13.3192 24.6387 13.9715 25.1469 14.5768C25.0939 14.3728 25.0551 14.1655 25.0305 13.9563C24.9464 12.9248 25.0429 11.8869 25.3159 10.8872Z" fill="url(#paint4_linear)"/>
<path d="M23.3878 11.6545C23.3473 11.1446 23.3586 10.6319 23.4216 10.1242C23.4393 9.98876 23.4571 9.8563 23.4748 9.72385C23.4969 9.58861 23.5337 9.45477 23.5572 9.32075C23.6104 9.04863 23.6925 8.78259 23.7675 8.51463C23.8411 8.24391 23.9484 7.98515 24.0412 7.7113C24.1544 7.45507 24.2499 7.18573 24.3734 6.92949C24.6054 6.41349 24.8661 5.91028 25.1543 5.42212C25.4354 4.93552 25.7369 4.47479 26.0369 4.03141C26.6417 3.15325 27.268 2.37587 27.8193 1.72253C28.0619 1.44625 28.287 1.19305 28.4973 0.966675H26.2867C25.6102 1.92726 24.9336 2.88849 24.2567 3.85035C23.674 4.63257 23.191 5.48154 22.8185 6.3784C22.4145 7.39631 22.3415 8.51156 22.6097 9.5716C22.8039 10.3825 23.0788 11.1727 23.4304 11.9312C23.4141 11.8373 23.4009 11.751 23.3878 11.6545Z" fill="url(#paint5_linear)"/>
<path d="M26.5574 10.3718C27.6204 8.35767 29.0043 6.52215 30.6572 4.93417C31.4307 4.12927 32.3071 3.31882 32.9662 2.71859C33.6252 2.11837 34.1899 1.63576 34.587 1.30471C34.7607 1.16079 34.8928 1.04856 34.9958 0.966187H39.2141C39.2141 0.966187 25.8187 12.6247 28.4973 17.8922C26.0276 15.9587 25.7426 15.1626 25.7426 15.1626C25.6614 14.932 25.6211 14.6895 25.6235 14.4455C25.6186 13.8801 25.6741 13.3157 25.7893 12.7616C25.934 11.9347 26.1924 11.1308 26.5574 10.3718Z" fill="url(#paint6_linear)"/>
<path d="M39.2141 0.966553C39.2141 0.966553 48.7684 15.4235 50.6361 18.1202C51.2013 18.9276 51.5074 19.8817 51.5153 20.8604C51.5232 21.8391 51.2325 22.7979 50.6805 23.6139C50.6805 23.6139 41.844 36.7728 40.8261 38.4567C40.3663 39.1447 39.759 39.7265 39.0463 40.1616C38.3337 40.5966 37.5328 40.8746 36.6993 40.9762H27.3735C27.3735 40.9762 37.3198 25.7461 39.2346 23.0495C39.6704 22.5311 39.9313 21.8932 39.9814 21.2237C40.0315 20.5541 39.8682 19.8858 39.5142 19.3108L31.8542 8.67292C34.077 5.90214 36.5394 3.32383 39.2141 0.966553Z" fill="url(#paint7_linear)"/>
<path d="M39.2141 23.1041C37.2993 25.8021 27.3545 41.0335 27.3545 41.0335C27.3545 41.0335 40.241 23.3262 40.5847 22.2432C40.9351 21.165 41.3439 20.6483 38.6671 17.2074C35.996 13.768 31.8542 8.67291 31.8542 8.67291L39.4904 19.3667C39.8453 19.941 40.0093 20.609 39.9598 21.2784C39.9103 21.9479 39.6498 22.5858 39.2141 23.1041Z" fill="url(#paint8_linear)"/>
<path style="mix-blend-mode:overlay" d="M39.2141 0.966569C39.6907 1.72824 40.7614 3.31477 41.2585 4.0721C43.3616 7.30688 44.8031 9.77018 47.0151 12.9403C48.333 14.8377 49.5655 16.6033 50.8127 18.4888C51.3712 19.5269 51.5259 20.728 51.2481 21.8692C50.9856 22.6728 50.5536 23.4134 49.98 24.0431C49.5744 24.6304 49.1506 25.2524 48.7474 25.8398C48.0092 26.921 47.2917 27.9677 46.5563 29.0514C44.9882 31.3516 43.4323 33.6598 41.7791 35.9029C42.6204 34.4803 43.447 33.0552 44.2057 31.5881C45.5208 29.0586 47.015 26.545 48.1506 23.9364C49.3122 21.2556 48.4298 18.9367 46.1443 17.1987C43.4909 15.1798 40.6888 13.3555 37.7608 11.7408C37.2755 11.4615 34.8927 10.1958 31.8542 8.67285C34.0628 5.89006 36.5264 3.3105 39.2143 0.966309" fill="url(#paint9_linear)"/>
<path d="M40.1584 2.70837C41.7322 5.21489 43.2823 7.73861 44.8677 10.2437C45.7678 11.6704 46.7325 13.0611 47.6651 14.469C48.7376 15.9044 49.6628 17.4398 50.4272 19.0531C51.3777 21.4227 50.2568 22.9948 48.9596 24.9254C46.2208 28.9954 43.6854 33.2108 40.8672 37.2288C40.2715 38.1247 39.528 38.9176 38.6671 39.5752C37.7669 40.149 36.7202 40.4638 35.6461 40.4838C34.8924 40.5532 34.1753 40.6118 33.4223 40.6852C31.7924 40.8407 30.0923 40.8407 28.4546 40.9573C28.0885 40.9817 27.7206 41.0063 27.3545 41.0336H36.6784C37.512 40.9312 38.313 40.653 39.0261 40.2181C39.7392 39.7831 40.3473 39.2019 40.8085 38.5145C41.8265 36.827 50.6628 23.6686 50.6628 23.6686C51.2134 22.8519 51.5029 21.8931 51.4946 20.9147C51.4862 19.9362 51.1803 18.9823 50.6158 18.1748C48.9302 15.7417 40.9996 3.68018 39.4671 1.35377L39.2141 0.966553L40.1584 2.70837Z" fill="url(#paint10_linear)"/>
<path d="M12.3014 41.0334C12.3014 41.0334 2.74711 26.5764 0.87933 23.8798C0.314177 23.0724 0.00805686 22.1182 0.000158441 21.1395C-0.00774188 20.1608 0.282942 19.2021 0.834991 18.386C0.834991 18.386 9.67146 5.22714 10.6894 3.54323C11.1492 2.85522 11.7565 2.27346 12.4691 1.83837C13.1818 1.40329 13.9827 1.12531 14.8162 1.02376L24.1419 1.02376C24.1419 1.02376 14.1957 16.2539 12.2809 18.9504C11.8451 19.4688 11.5842 20.1067 11.5341 20.7763C11.484 21.4459 11.6473 22.1142 12.0013 22.6891L19.6612 33.327C17.4385 36.0978 14.9761 38.6761 12.3014 41.0334Z" fill="url(#paint11_linear)"/>
<path d="M12.3014 18.8959C14.2161 16.1979 24.161 0.966606 24.161 0.966606C24.161 0.966606 11.2744 18.6738 10.9307 19.7568C10.5803 20.8351 10.1715 21.3518 12.8483 24.7927C15.5194 28.2321 19.6612 33.3271 19.6612 33.3271L12.025 22.6334C11.6701 22.0591 11.5061 21.3911 11.5556 20.7216C11.6051 20.0522 11.8657 19.4142 12.3014 18.8959Z" fill="url(#paint12_linear)"/>
<path style="mix-blend-mode:overlay" d="M12.3014 41.0333C11.8248 40.2717 10.7541 38.6851 10.257 37.9278C8.15384 34.693 6.71242 32.2297 4.5004 29.0596C3.18249 27.1622 1.94999 25.3967 0.702762 23.5111C0.144304 22.473 -0.0104031 21.2719 0.267362 20.1307C0.529893 19.3271 0.961908 18.5865 1.53543 17.9568C1.94103 17.3695 2.3649 16.7475 2.76803 16.1601C3.50625 15.0789 4.22381 14.0322 4.9592 12.9485C6.52726 10.6483 8.08317 8.34009 9.73636 6.097C8.89509 7.51957 8.06845 8.94465 7.30974 10.4118C5.99467 12.9413 4.50049 15.4549 3.3649 18.0635C2.20325 20.7443 3.08566 23.0632 5.37119 24.8012C8.02454 26.8201 10.8267 28.6444 13.7547 30.2591C14.2399 30.5384 16.6227 31.8041 19.6613 33.327C17.4527 36.1098 14.9893 38.6891 12.3014 41.0333Z" fill="url(#paint13_linear)"/>
<path d="M11.357 39.2916C9.78318 36.785 8.23304 34.2613 6.64769 31.7562C5.74754 30.3296 4.78283 28.9388 3.85032 27.5309C2.77781 26.0956 1.85261 24.5601 1.08815 22.9469C0.137724 20.5772 1.25859 19.0051 2.55574 17.0746C5.29458 13.0045 7.83 8.78916 10.6481 4.7711C11.2439 3.87526 11.9874 3.08237 12.8483 2.42472C13.7485 1.8509 14.7952 1.5361 15.8693 1.51618C16.623 1.44674 17.3401 1.38815 18.0931 1.31472C19.723 1.15926 21.423 1.15926 23.0608 1.0426C23.4269 1.01822 23.7948 0.993645 24.1609 0.966389L14.837 0.96639C14.0034 1.06874 13.2023 1.34698 12.4893 1.78189C11.7762 2.2168 11.1681 2.79802 10.7068 3.48541C9.68892 5.17289 0.852539 18.3314 0.852539 18.3314C0.301987 19.1481 0.0124321 20.1068 0.0208036 21.0853C0.0291731 22.0637 0.335091 23.0176 0.899538 23.8252C2.58518 26.2583 10.5157 38.3198 12.0482 40.6462L12.3013 41.0334L11.357 39.2916Z" fill="url(#paint14_linear)"/>
<path d="M26.2099 31.1088C25.5129 33.5793 24.0231 35.2926 22.3951 37.2605C21.5272 38.3128 20.5712 39.2829 19.6519 40.2881C19.4004 40.5602 19.1695 40.8049 18.9514 41.0338H21.362C21.4311 40.9791 21.4973 40.923 21.5768 40.8554C23.1997 39.413 24.6186 37.7649 25.7957 35.9548C26.2027 35.3401 26.5728 34.7028 26.9042 34.0461C27.0086 33.797 27.1292 33.5537 27.2218 33.3032C27.3158 33.0557 27.4113 32.808 27.4806 32.5545C27.516 32.4292 27.5556 32.307 27.588 32.1818C27.6174 32.0565 27.6425 31.9301 27.669 31.8085C27.7689 31.3309 27.8192 30.8446 27.8193 30.3571C27.8118 30.1238 27.8118 29.9986 27.7884 29.7797C27.7662 29.6386 27.7425 29.5048 27.7192 29.3665C27.3369 28.6771 26.8877 28.0253 26.3779 27.4201C26.4324 27.6235 26.4722 27.8304 26.4971 28.0392C26.5817 29.071 26.4845 30.1093 26.2099 31.1088Z" fill="url(#paint15_linear)"/>
<path d="M28.1384 30.3428C28.1806 30.8533 28.1688 31.3666 28.1029 31.8746C28.0885 32.0071 28.0705 32.1395 28.0516 32.2749C28.0282 32.4074 27.9988 32.5427 27.9694 32.6751C27.9177 32.9458 27.8383 33.2132 27.759 33.4842C27.6868 33.7519 27.5781 34.0137 27.487 34.2876C27.3779 34.5452 27.2795 34.8115 27.1546 35.0678C26.9217 35.5832 26.6605 36.0859 26.3722 36.5737C26.0925 37.0603 25.7893 37.5238 25.4893 37.9644C24.937 38.7642 24.342 39.5348 23.7069 40.2733C23.4643 40.5526 23.2436 40.8045 23.0304 41.0334H25.2395C25.9177 40.0721 26.5938 39.11 27.2678 38.1473C27.852 37.3658 28.3354 36.5167 28.707 35.6192C29.1128 34.6014 29.1868 33.4855 28.9187 32.4249C28.7236 31.6146 28.4485 30.8248 28.0972 30.0667C28.1119 30.1586 28.1279 30.2449 28.1384 30.3428Z" fill="url(#paint16_linear)"/>
<path d="M24.9688 31.6256C23.9067 33.6409 22.5224 35.4771 20.8683 37.0648C20.0946 37.8667 19.221 38.6786 18.5621 39.2804C17.9002 39.8793 17.3399 40.3629 16.9413 40.6941C16.7693 40.8381 16.6323 40.9475 16.531 41.0338H12.3128C12.3128 41.0338 25.7103 29.3696 23.0304 24.1063C25.5014 26.0382 25.785 26.8359 25.785 26.8359C25.8663 27.0665 25.907 27.3088 25.9056 27.5527C25.9088 28.1175 25.8522 28.6811 25.7366 29.2344C25.5926 30.0619 25.3343 30.8663 24.9688 31.6256Z" fill="url(#paint17_linear)"/>
<defs>
<linearGradient id="paint0_linear" x1="17.6165" y1="8.27462" x2="38.7233" y2="42.8464" gradientUnits="userSpaceOnUse">
<stop offset="0.0381" stop-color="#FFDD00"/>
<stop offset="0.1837" stop-color="#FCC208"/>
<stop offset="0.4959" stop-color="#F47C1D"/>
<stop offset="0.545" stop-color="#F37021"/>
<stop offset="1" stop-color="#FFDD00"/>
</linearGradient>
<linearGradient id="paint1_linear" x1="35.6364" y1="38.78" x2="14.1795" y2="1.67022" gradientUnits="userSpaceOnUse">
<stop offset="0.1298" stop-color="#231F20"/>
<stop offset="0.735" stop-color="#BFBEBE"/>
<stop offset="1" stop-color="white"/>
</linearGradient>
<linearGradient id="paint2_linear" x1="21.8736" y1="46.8046" x2="30.6862" y2="-3.33907" gradientUnits="userSpaceOnUse">
<stop offset="0.0381" stop-color="#FFDD00"/>
<stop offset="0.3634" stop-color="#FCC20A"/>
<stop offset="1" stop-color="#F58220"/>
</linearGradient>
<linearGradient id="paint3_linear" x1="434.712" y1="1175.61" x2="-186.597" y2="633.844" gradientUnits="userSpaceOnUse">
<stop offset="0.0381" stop-color="#FFDD00"/>
<stop offset="0.3634" stop-color="#FCC20A"/>
<stop offset="1" stop-color="#F58220"/>
</linearGradient>
<linearGradient id="paint4_linear" x1="30.7835" y1="-8.42861" x2="25.3406" y2="22.5413" gradientUnits="userSpaceOnUse">
<stop offset="0.0381" stop-color="#FFDD00"/>
<stop offset="0.3145" stop-color="#FCC208"/>
<stop offset="0.9069" stop-color="#F47C1D"/>
<stop offset="1" stop-color="#F37021"/>
</linearGradient>
<linearGradient id="paint5_linear" x1="209.697" y1="-45.787" x2="115.339" y2="244.018" gradientUnits="userSpaceOnUse">
<stop offset="0.0381" stop-color="#FFDD00"/>
<stop offset="0.3145" stop-color="#FCC208"/>
<stop offset="0.9069" stop-color="#F47C1D"/>
<stop offset="1" stop-color="#F37021"/>
</linearGradient>
<linearGradient id="paint6_linear" x1="574.21" y1="-161.937" x2="407.023" y2="585.752" gradientUnits="userSpaceOnUse">
<stop offset="0.0381" stop-color="#FFDD00"/>
<stop offset="0.3145" stop-color="#FCC208"/>
<stop offset="0.9069" stop-color="#F47C1D"/>
<stop offset="1" stop-color="#F37021"/>
</linearGradient>
<linearGradient id="paint7_linear" x1="38.8662" y1="46.185" x2="40.7573" y2="-5.18592" gradientUnits="userSpaceOnUse">
<stop stop-color="#004282"/>
<stop offset="0.3214" stop-color="#004A8F"/>
<stop offset="0.6454" stop-color="#2188C1"/>
<stop offset="1" stop-color="#44C8F5"/>
</linearGradient>
<linearGradient id="paint8_linear" x1="37.8702" y1="6.11318" x2="27.9371" y2="66.5329" gradientUnits="userSpaceOnUse">
<stop offset="0.1604" stop-color="#004282"/>
<stop offset="0.3376" stop-color="#006AA6"/>
<stop offset="0.5329" stop-color="#008FC7"/>
<stop offset="0.7147" stop-color="#00AADF"/>
<stop offset="0.8759" stop-color="#00BAEE"/>
<stop offset="1" stop-color="#00C0F3"/>
</linearGradient>
<linearGradient id="paint9_linear" x1="119.647" y1="269.577" x2="113.275" y2="247.822" gradientUnits="userSpaceOnUse">
<stop stop-color="#231F20"/>
<stop offset="0.645833" stop-color="#BFBEBE"/>
<stop offset="0.864583" stop-color="white" stop-opacity="0.5"/>
<stop offset="1" stop-color="white" stop-opacity="0.2"/>
</linearGradient>
<linearGradient id="paint10_linear" x1="46.0201" y1="2.34016" x2="37.3692" y2="41.9379" gradientUnits="userSpaceOnUse">
<stop offset="0.1604" stop-color="#0072BC"/>
<stop offset="1" stop-color="#14B1E7"/>
</linearGradient>
<linearGradient id="paint11_linear" x1="12.6493" y1="-4.18511" x2="10.7582" y2="47.1859" gradientUnits="userSpaceOnUse">
<stop stop-color="#004282"/>
<stop offset="0.3214" stop-color="#004A8F"/>
<stop offset="0.6454" stop-color="#2188C1"/>
<stop offset="1" stop-color="#44C8F5"/>
</linearGradient>
<linearGradient id="paint12_linear" x1="13.6452" y1="35.8869" x2="23.5783" y2="-24.5329" gradientUnits="userSpaceOnUse">
<stop offset="0.1604" stop-color="#004282"/>
<stop offset="0.3376" stop-color="#006AA6"/>
<stop offset="0.5329" stop-color="#008FC7"/>
<stop offset="0.7147" stop-color="#00AADF"/>
<stop offset="0.8759" stop-color="#00BAEE"/>
<stop offset="1" stop-color="#00C0F3"/>
</linearGradient>
<linearGradient id="paint13_linear" x1="-68.1311" y1="-227.577" x2="-61.7593" y2="-205.822" gradientUnits="userSpaceOnUse">
<stop stop-color="#231F20"/>
<stop offset="0.645833" stop-color="#BFBEBE"/>
<stop offset="0.864583" stop-color="white" stop-opacity="0.5"/>
<stop offset="1" stop-color="white" stop-opacity="0.2"/>
</linearGradient>
<linearGradient id="paint14_linear" x1="5.49526" y1="39.6598" x2="14.1462" y2="0.0620055" gradientUnits="userSpaceOnUse">
<stop offset="0.1604" stop-color="#0072BC"/>
<stop offset="1" stop-color="#14B1E7"/>
</linearGradient>
<linearGradient id="paint15_linear" x1="-53440.3" y1="50423.3" x2="-53312" y2="49957.9" gradientUnits="userSpaceOnUse">
<stop offset="0.0381" stop-color="#FFDD00"/>
<stop offset="0.3145" stop-color="#FCC208"/>
<stop offset="0.9069" stop-color="#F47C1D"/>
<stop offset="1" stop-color="#F37021"/>
</linearGradient>
<linearGradient id="paint16_linear" x1="-34529.4" y1="39928" x2="-34435" y2="39638.1" gradientUnits="userSpaceOnUse">
<stop offset="0.0381" stop-color="#FFDD00"/>
<stop offset="0.3145" stop-color="#FCC208"/>
<stop offset="0.9069" stop-color="#F47C1D"/>
<stop offset="1" stop-color="#F37021"/>
</linearGradient>
<linearGradient id="paint17_linear" x1="-85148.9" y1="63582.7" x2="-84981.7" y2="62834.9" gradientUnits="userSpaceOnUse">
<stop offset="0.0381" stop-color="#FFDD00"/>
<stop offset="0.3145" stop-color="#FCC208"/>
<stop offset="0.9069" stop-color="#F47C1D"/>
<stop offset="1" stop-color="#F37021"/>
</linearGradient>
</defs>
</svg>
