<svg width="28" height="28" viewBox="0 0 28 28" fill="none" xmlns="http://www.w3.org/2000/svg">
<path d="M14.4999 21.9995C15.6045 21.9995 16.4999 21.1041 16.4999 19.9995C16.4999 18.8949 15.6045 17.9995 14.4999 17.9995C13.3953 17.9995 12.4999 18.8949 12.4999 19.9995C12.4999 21.1041 13.3953 21.9995 14.4999 21.9995Z" fill="#F58A20"/>
<path d="M14.5 15C15.1922 15 15.8689 14.7947 16.4445 14.4101C17.0201 14.0256 17.4687 13.4789 17.7336 12.8394C17.9985 12.1999 18.0678 11.4961 17.9327 10.8172C17.7977 10.1383 17.4644 9.51461 16.9749 9.02513C16.4854 8.53564 15.8618 8.2023 15.1828 8.06725C14.5039 7.9322 13.8001 8.00152 13.1606 8.26642C12.5211 8.53133 11.9744 8.97993 11.5899 9.55551C11.2053 10.1311 11 10.8078 11 11.5" stroke="#F58A20" stroke-width="3" stroke-linecap="round" stroke-linejoin="round"/>
<circle cx="14" cy="14" r="13" stroke="#F58A20" stroke-width="2"/>
</svg>
