<svg width="224" height="42" viewBox="0 0 224 42" fill="none" xmlns="http://www.w3.org/2000/svg">
<path d="M32.6456 25.3991C32.34 23.6938 31.5835 22.0965 30.4512 20.7663C29.5051 19.6715 28.4838 18.6412 27.3944 17.6824C26.8086 17.1557 26.2189 16.6358 25.6392 16.0944C23.7069 14.2762 22.1024 12.2174 21.6331 9.57132C21.5103 9.02359 21.5053 8.45684 21.6184 7.9071L20.4285 9.50223C20.2006 9.83624 19.9873 10.1731 19.7917 10.5245C18.8452 12.2154 18.4545 14.1509 18.6727 16.0672C18.8908 17.9834 19.7074 19.7872 21.011 21.2327C21.9569 22.3265 22.978 23.3559 24.0673 24.3135C24.6512 24.842 25.2467 25.3631 25.8187 25.9029C27.7576 27.7198 29.3598 29.7814 29.8336 32.4275C29.9503 32.9754 29.9553 33.5405 29.8482 34.0903L31.0337 32.4951C31.2602 32.1626 31.4777 31.8229 31.6722 31.4687C32.6965 29.6141 33.04 27.4718 32.6456 25.3991Z" fill="url(#paint0_linear)"/>
<path style="mix-blend-mode:overlay" opacity="0.8" d="M29.8422 26.0728C28.3354 23.5419 25.9026 22.1396 23.9097 20.0723C21.7241 17.8034 20.277 15.1689 20.5534 11.9842C20.7362 10.7062 21.0164 9.44351 21.3918 8.20654C21.0507 8.66875 20.4284 9.50221 20.4284 9.50221C20.2005 9.83621 19.9872 10.1731 19.7915 10.5245C18.8451 12.2154 18.4543 14.1509 18.6725 16.0671C18.8907 17.9834 19.7073 19.7872 21.0108 21.2326C21.9568 22.3265 22.9779 23.3559 24.0671 24.3135C24.6511 24.8419 25.2465 25.3631 25.8186 25.9029C27.7575 27.7198 29.3597 29.7814 29.8335 32.4275C29.9502 32.9754 29.9553 33.5405 29.8482 34.0903C30.6241 32.8909 31.0355 31.5003 31.0344 30.0807C31.0334 28.6611 30.6199 27.271 29.8422 26.0728Z" fill="url(#paint1_linear)"/>
<path d="M21.6008 10.5648C22.0509 13.3779 24.213 15.1803 26.1691 17.121C26.9134 17.8611 28.287 19.0689 29.0156 19.8261C31.0542 21.9454 32.3251 23.9752 32.3398 26.9971C32.3624 28.0919 32.2296 29.1844 31.9454 30.2435C31.5387 31.4268 30.9623 32.5475 30.2333 33.5721C30.5808 33.1071 31.0337 32.495 31.0337 32.495C31.2602 32.1625 31.4777 31.8228 31.6722 31.4686C32.6965 29.614 33.0402 27.4717 32.6459 25.3991C32.3402 23.6937 31.5836 22.0964 30.4512 20.7663C29.5051 19.6715 28.4838 18.6412 27.3944 17.6824C26.8086 17.1557 26.2189 16.6358 25.6392 16.0944C23.7069 14.2762 22.1024 12.2174 21.6331 9.57132C21.5103 9.02359 21.5053 8.45684 21.6184 7.9071C21.2271 8.61253 21.4816 9.83337 21.6008 10.5648Z" fill="url(#paint2_linear)"/>
<path d="M29.9039 33.8054C30.0958 32.693 30.0008 31.5513 29.6275 30.484C28.0206 26.0124 23.4965 24 20.8683 20.3127C19.9706 19.0893 19.3847 17.6735 19.1595 16.1834C18.9343 14.6934 19.0763 13.1722 19.5736 11.7467C19.8193 11.0254 19.959 10.6511 21.618 7.9071C21.2695 8.37643 20.4282 9.50223 20.4282 9.50223C20.2003 9.83624 19.9869 10.1731 19.7913 10.5245C18.8449 12.2154 18.4541 14.1509 18.6723 16.0672C18.8905 17.9834 19.707 19.7872 21.0106 21.2327C21.9565 22.3265 22.9777 23.3559 24.0669 24.3135C24.6508 24.842 25.2463 25.3631 25.8183 25.9029C27.7572 27.7198 29.3594 29.7814 29.8332 32.4275C29.9176 32.8819 29.9414 33.345 29.9039 33.8054Z" fill="url(#paint3_linear)"/>
<path d="M25.3159 10.8872C26.0164 8.41668 27.5045 6.70342 29.1305 4.73696C29.9982 3.68599 30.9572 2.71452 31.875 1.7092C32.1248 1.4357 32.3603 1.1924 32.5749 0.96637H30.1658C30.0981 1.01975 30.0306 1.07444 29.9481 1.14066C28.3267 2.58454 26.908 4.23241 25.729 6.04122C25.3251 6.65856 24.9555 7.29678 24.6217 7.95308C24.5187 8.19794 24.3967 8.44263 24.3055 8.69314C24.2071 8.93832 24.1212 9.18819 24.0484 9.44179C24.01 9.56565 23.9703 9.6909 23.9409 9.81616C23.91 9.94132 23.8851 10.0667 23.8571 10.1904C23.7591 10.6682 23.7089 11.1542 23.707 11.6416C23.7159 11.8749 23.7159 11.9986 23.7379 12.2174C23.76 12.3601 23.7849 12.4952 23.8129 12.6292C24.192 13.3192 24.6387 13.9715 25.1469 14.5768C25.0939 14.3728 25.0551 14.1655 25.0305 13.9563C24.9464 12.9248 25.0429 11.8869 25.3159 10.8872Z" fill="url(#paint4_linear)"/>
<path d="M23.3878 11.6545C23.3473 11.1446 23.3586 10.6319 23.4216 10.1242C23.4393 9.98876 23.4571 9.8563 23.4748 9.72385C23.4969 9.58861 23.5337 9.45477 23.5572 9.32075C23.6104 9.04863 23.6925 8.78259 23.7675 8.51463C23.8411 8.24391 23.9484 7.98515 24.0412 7.7113C24.1544 7.45507 24.2499 7.18573 24.3734 6.92949C24.6054 6.41349 24.8661 5.91028 25.1543 5.42212C25.4354 4.93552 25.7369 4.47479 26.0369 4.03141C26.6417 3.15325 27.268 2.37587 27.8193 1.72253C28.0619 1.44625 28.287 1.19305 28.4973 0.966675H26.2867C25.6102 1.92726 24.9336 2.88849 24.2567 3.85035C23.674 4.63257 23.191 5.48154 22.8185 6.3784C22.4145 7.39631 22.3415 8.51156 22.6097 9.5716C22.8039 10.3825 23.0788 11.1727 23.4304 11.9312C23.4141 11.8373 23.4009 11.751 23.3878 11.6545Z" fill="url(#paint5_linear)"/>
<path d="M26.5574 10.3718C27.6204 8.35767 29.0043 6.52215 30.6572 4.93417C31.4307 4.12927 32.3071 3.31882 32.9662 2.71859C33.6252 2.11837 34.1899 1.63576 34.587 1.30471C34.7607 1.16079 34.8928 1.04856 34.9958 0.966187H39.2141C39.2141 0.966187 25.8187 12.6247 28.4973 17.8922C26.0276 15.9587 25.7426 15.1626 25.7426 15.1626C25.6614 14.932 25.6211 14.6895 25.6235 14.4455C25.6186 13.8801 25.6741 13.3157 25.7893 12.7616C25.934 11.9347 26.1924 11.1308 26.5574 10.3718Z" fill="url(#paint6_linear)"/>
<path d="M39.2141 0.966553C39.2141 0.966553 48.7684 15.4235 50.6361 18.1202C51.2013 18.9276 51.5074 19.8817 51.5153 20.8604C51.5232 21.8391 51.2325 22.7979 50.6805 23.6139C50.6805 23.6139 41.844 36.7728 40.8261 38.4567C40.3663 39.1447 39.759 39.7265 39.0463 40.1616C38.3337 40.5966 37.5328 40.8746 36.6993 40.9762H27.3735C27.3735 40.9762 37.3198 25.7461 39.2346 23.0495C39.6704 22.5311 39.9313 21.8932 39.9814 21.2237C40.0315 20.5541 39.8682 19.8858 39.5142 19.3108L31.8542 8.67292C34.077 5.90214 36.5394 3.32383 39.2141 0.966553Z" fill="url(#paint7_linear)"/>
<path d="M39.2141 23.1041C37.2993 25.8021 27.3545 41.0335 27.3545 41.0335C27.3545 41.0335 40.241 23.3262 40.5847 22.2432C40.9351 21.165 41.3439 20.6483 38.6671 17.2074C35.996 13.768 31.8542 8.67291 31.8542 8.67291L39.4904 19.3667C39.8453 19.941 40.0093 20.609 39.9598 21.2784C39.9103 21.9479 39.6498 22.5858 39.2141 23.1041Z" fill="url(#paint8_linear)"/>
<path style="mix-blend-mode:overlay" d="M39.2141 0.966569C39.6907 1.72824 40.7614 3.31477 41.2585 4.0721C43.3616 7.30688 44.8031 9.77018 47.0151 12.9403C48.333 14.8377 49.5655 16.6033 50.8127 18.4888C51.3712 19.5269 51.5259 20.728 51.2481 21.8692C50.9856 22.6728 50.5536 23.4134 49.98 24.0431C49.5744 24.6304 49.1506 25.2524 48.7474 25.8398C48.0092 26.921 47.2917 27.9677 46.5563 29.0514C44.9882 31.3516 43.4323 33.6598 41.7791 35.9029C42.6204 34.4803 43.447 33.0552 44.2057 31.5881C45.5208 29.0586 47.015 26.545 48.1506 23.9364C49.3122 21.2556 48.4298 18.9367 46.1443 17.1987C43.4909 15.1798 40.6888 13.3555 37.7608 11.7408C37.2755 11.4615 34.8927 10.1958 31.8542 8.67285C34.0628 5.89006 36.5264 3.3105 39.2143 0.966309" fill="url(#paint9_linear)"/>
<path d="M40.1584 2.70837C41.7322 5.21489 43.2823 7.73861 44.8677 10.2437C45.7678 11.6704 46.7325 13.0611 47.6651 14.469C48.7376 15.9044 49.6628 17.4398 50.4272 19.0531C51.3777 21.4227 50.2568 22.9948 48.9596 24.9254C46.2208 28.9954 43.6854 33.2108 40.8672 37.2288C40.2715 38.1247 39.528 38.9176 38.6671 39.5752C37.7669 40.149 36.7202 40.4638 35.6461 40.4838C34.8924 40.5532 34.1753 40.6118 33.4223 40.6852C31.7924 40.8407 30.0923 40.8407 28.4546 40.9573C28.0885 40.9817 27.7206 41.0063 27.3545 41.0336H36.6784C37.512 40.9312 38.313 40.653 39.0261 40.2181C39.7392 39.7831 40.3473 39.2019 40.8085 38.5145C41.8265 36.827 50.6628 23.6686 50.6628 23.6686C51.2134 22.8519 51.5029 21.8931 51.4946 20.9147C51.4862 19.9362 51.1803 18.9823 50.6158 18.1748C48.9302 15.7417 40.9996 3.68018 39.4671 1.35377L39.2141 0.966553L40.1584 2.70837Z" fill="url(#paint10_linear)"/>
<path d="M12.3014 41.0334C12.3014 41.0334 2.74711 26.5764 0.87933 23.8798C0.314177 23.0724 0.00805686 22.1182 0.000158441 21.1395C-0.00774188 20.1608 0.282942 19.2021 0.834991 18.386C0.834991 18.386 9.67146 5.22714 10.6894 3.54323C11.1492 2.85522 11.7565 2.27346 12.4691 1.83837C13.1818 1.40329 13.9827 1.12531 14.8162 1.02376L24.1419 1.02376C24.1419 1.02376 14.1957 16.2539 12.2809 18.9504C11.8451 19.4688 11.5842 20.1067 11.5341 20.7763C11.484 21.4459 11.6473 22.1142 12.0013 22.6891L19.6612 33.327C17.4385 36.0978 14.9761 38.6761 12.3014 41.0334Z" fill="url(#paint11_linear)"/>
<path d="M12.3014 18.8959C14.2161 16.1979 24.161 0.966606 24.161 0.966606C24.161 0.966606 11.2744 18.6738 10.9307 19.7568C10.5803 20.8351 10.1715 21.3518 12.8483 24.7927C15.5194 28.2321 19.6612 33.3271 19.6612 33.3271L12.025 22.6334C11.6701 22.0591 11.5061 21.3911 11.5556 20.7216C11.6051 20.0522 11.8657 19.4142 12.3014 18.8959Z" fill="url(#paint12_linear)"/>
<path style="mix-blend-mode:overlay" d="M12.3014 41.0333C11.8248 40.2717 10.7541 38.6851 10.257 37.9278C8.15384 34.693 6.71242 32.2297 4.5004 29.0596C3.18249 27.1622 1.94999 25.3967 0.702762 23.5111C0.144304 22.473 -0.0104031 21.2719 0.267362 20.1307C0.529893 19.3271 0.961908 18.5865 1.53543 17.9568C1.94103 17.3695 2.3649 16.7475 2.76803 16.1601C3.50625 15.0789 4.22381 14.0322 4.9592 12.9485C6.52726 10.6483 8.08317 8.34009 9.73636 6.097C8.89509 7.51957 8.06845 8.94465 7.30974 10.4118C5.99467 12.9413 4.50049 15.4549 3.3649 18.0635C2.20325 20.7443 3.08566 23.0632 5.37119 24.8012C8.02454 26.8201 10.8267 28.6444 13.7547 30.2591C14.2399 30.5384 16.6227 31.8041 19.6613 33.327C17.4527 36.1098 14.9893 38.6891 12.3014 41.0333Z" fill="url(#paint13_linear)"/>
<path d="M11.357 39.2916C9.78318 36.785 8.23304 34.2613 6.64769 31.7562C5.74754 30.3296 4.78283 28.9388 3.85032 27.5309C2.77781 26.0956 1.85261 24.5601 1.08815 22.9469C0.137724 20.5772 1.25859 19.0051 2.55574 17.0746C5.29458 13.0045 7.83 8.78916 10.6481 4.7711C11.2439 3.87526 11.9874 3.08237 12.8483 2.42472C13.7485 1.8509 14.7952 1.5361 15.8693 1.51618C16.623 1.44674 17.3401 1.38815 18.0931 1.31472C19.723 1.15926 21.423 1.15926 23.0608 1.0426C23.4269 1.01822 23.7948 0.993645 24.1609 0.966389L14.837 0.96639C14.0034 1.06874 13.2023 1.34698 12.4893 1.78189C11.7762 2.2168 11.1681 2.79802 10.7068 3.48541C9.68892 5.17289 0.852539 18.3314 0.852539 18.3314C0.301987 19.1481 0.0124321 20.1068 0.0208036 21.0853C0.0291731 22.0637 0.335091 23.0176 0.899538 23.8252C2.58518 26.2583 10.5157 38.3198 12.0482 40.6462L12.3013 41.0334L11.357 39.2916Z" fill="url(#paint14_linear)"/>
<path d="M26.2099 31.1088C25.5129 33.5793 24.0231 35.2926 22.3951 37.2605C21.5272 38.3128 20.5712 39.2829 19.6519 40.2881C19.4004 40.5602 19.1695 40.8049 18.9514 41.0338H21.362C21.4311 40.9791 21.4973 40.923 21.5768 40.8554C23.1997 39.413 24.6186 37.7649 25.7957 35.9548C26.2027 35.3401 26.5728 34.7028 26.9042 34.0461C27.0086 33.797 27.1292 33.5537 27.2218 33.3032C27.3158 33.0557 27.4113 32.808 27.4806 32.5545C27.516 32.4292 27.5556 32.307 27.588 32.1818C27.6174 32.0565 27.6425 31.9301 27.669 31.8085C27.7689 31.3309 27.8192 30.8446 27.8193 30.3571C27.8118 30.1238 27.8118 29.9986 27.7884 29.7797C27.7662 29.6386 27.7425 29.5048 27.7192 29.3665C27.3369 28.6771 26.8877 28.0253 26.3779 27.4201C26.4324 27.6235 26.4722 27.8304 26.4971 28.0392C26.5817 29.071 26.4845 30.1093 26.2099 31.1088Z" fill="url(#paint15_linear)"/>
<path d="M28.1384 30.3428C28.1806 30.8533 28.1688 31.3666 28.1029 31.8746C28.0885 32.0071 28.0705 32.1395 28.0516 32.2749C28.0282 32.4074 27.9988 32.5427 27.9694 32.6751C27.9177 32.9458 27.8383 33.2132 27.759 33.4842C27.6868 33.7519 27.5781 34.0137 27.487 34.2876C27.3779 34.5452 27.2795 34.8115 27.1546 35.0678C26.9217 35.5832 26.6605 36.0859 26.3722 36.5737C26.0925 37.0603 25.7893 37.5238 25.4893 37.9644C24.937 38.7642 24.342 39.5348 23.7069 40.2733C23.4643 40.5526 23.2436 40.8045 23.0304 41.0334H25.2395C25.9177 40.0721 26.5938 39.11 27.2678 38.1473C27.852 37.3658 28.3354 36.5167 28.707 35.6192C29.1128 34.6014 29.1868 33.4855 28.9187 32.4249C28.7236 31.6146 28.4485 30.8248 28.0972 30.0667C28.1119 30.1586 28.1279 30.2449 28.1384 30.3428Z" fill="url(#paint16_linear)"/>
<path d="M24.9688 31.6256C23.9067 33.6409 22.5224 35.4771 20.8683 37.0648C20.0946 37.8667 19.221 38.6786 18.5621 39.2804C17.9002 39.8793 17.3399 40.3629 16.9413 40.6941C16.7693 40.8381 16.6323 40.9475 16.531 41.0338H12.3128C12.3128 41.0338 25.7103 29.3696 23.0304 24.1063C25.5014 26.0382 25.785 26.8359 25.785 26.8359C25.8663 27.0665 25.907 27.3088 25.9056 27.5527C25.9088 28.1175 25.8522 28.6811 25.7366 29.2344C25.5926 30.0619 25.3343 30.8663 24.9688 31.6256Z" fill="url(#paint17_linear)"/>
<path d="M67.2884 6.54004V15.8191H65.2185V6.54004H62.9647V4.73035H69.5246V6.54004H67.2884Z" fill="#006CB7"/>
<path d="M76.5713 15.8192L75.2311 12.4178C75.1119 12.1136 74.9261 11.84 74.6874 11.617C74.4381 11.4081 74.1188 11.3017 73.794 11.3194H73.0092V15.8192H70.9619V5.14824C71.4344 4.94004 71.9306 4.79035 72.4394 4.70249C73.0083 4.60001 73.5851 4.54903 74.1631 4.55016C75.2399 4.47018 76.3089 4.78562 77.1698 5.43737C77.5092 5.74504 77.7759 6.12432 77.9508 6.54776C78.1256 6.9712 78.204 7.42822 78.1805 7.88572C78.1864 8.24507 78.1292 8.60267 78.0113 8.94221C77.8113 9.51592 77.4094 9.99723 76.8805 10.2963C76.6318 10.4435 76.3665 10.5608 76.0902 10.6457V10.6722C76.3795 10.8384 76.6281 11.0671 76.8176 11.3416C77.0255 11.6389 77.1975 11.9598 77.3301 12.2974L78.7562 15.8192H76.5713ZM76.136 8.01443C76.1526 7.76986 76.1203 7.52443 76.0412 7.29243C75.962 7.06043 75.8375 6.8465 75.6748 6.66308C75.4742 6.48886 75.2404 6.35697 74.9876 6.27533C74.7347 6.19369 74.468 6.16398 74.2033 6.18799C73.9837 6.18773 73.7644 6.205 73.5476 6.23965C73.3652 6.26786 73.1852 6.30991 73.0092 6.36544V9.78356H74.1174C74.6523 9.81958 75.183 9.66775 75.6179 9.35427C75.8002 9.18487 75.9416 8.97621 76.0314 8.74408C76.1212 8.51195 76.1569 8.26244 76.136 8.01443Z" fill="#006CB7"/>
<path d="M87.071 14.0039C86.8964 14.4129 86.6355 14.7794 86.3062 15.0785C85.9681 15.3737 85.575 15.5993 85.1495 15.7423C84.2097 16.0479 83.1973 16.0479 82.2575 15.7423C81.8367 15.5984 81.4484 15.3728 81.1151 15.0785C80.7843 14.7796 80.5217 14.4131 80.3451 14.0039C80.1569 13.5409 80.0644 13.0446 80.0732 12.5449V4.73035H82.1547V12.5617C82.1439 12.7738 82.1787 12.9857 82.2568 13.1832C82.3348 13.3806 82.4543 13.5591 82.6071 13.7065C82.9102 13.9756 83.3014 14.1243 83.7068 14.1243C84.1121 14.1243 84.5033 13.9756 84.8064 13.7065C84.9607 13.5601 85.0813 13.3818 85.1599 13.1842C85.2385 12.9865 85.2732 12.7741 85.2616 12.5617V4.73035H87.349V12.5449C87.3571 13.0451 87.2625 13.5417 87.071 14.0039Z" fill="#006CB7"/>
<path d="M95.5004 15.8191L91.7095 9.24554C91.6123 9.09941 91.5262 8.9462 91.4519 8.78719C91.3747 8.63343 91.3059 8.49792 91.2602 8.38051C91.1973 8.23519 91.1368 8.08844 91.0827 7.94592H91.0425C91.0425 8.08844 91.0481 8.24356 91.0624 8.40984C91.0624 8.54958 91.0656 8.70191 91.0711 8.87384C91.0767 9.04577 91.0827 9.21728 91.0827 9.38949V15.8191H89.3016V4.73035H91.0827L94.7992 11.1293C94.885 11.2844 94.9651 11.4395 95.034 11.5932C95.1084 11.7428 95.18 11.8825 95.2457 12.0055C95.3145 12.1522 95.3833 12.2917 95.4378 12.4359H95.4721C95.4606 12.292 95.4578 12.1354 95.4578 11.9608C95.449 11.8168 95.4378 11.6561 95.4378 11.4787V4.73035H97.2185V15.8191H95.5004Z" fill="#006CB7"/>
<path d="M105.433 15.829C104.866 15.9555 104.285 16.016 103.704 16.0092C103.012 16.0172 102.326 15.8806 101.691 15.6082C101.1 15.3461 100.578 14.9511 100.165 14.4539C99.7305 13.9199 99.4029 13.3074 99.1998 12.6497C98.967 11.8816 98.854 11.0822 98.8648 10.2797C98.8524 9.47211 98.9733 8.66803 99.2225 7.8998C99.4419 7.2379 99.7881 6.6251 100.242 6.09568C100.676 5.59709 101.217 5.20379 101.825 4.9456C102.479 4.67526 103.182 4.54072 103.89 4.55015C104.407 4.54751 104.923 4.60329 105.427 4.71643C105.819 4.79675 106.195 4.94274 106.538 5.14823L105.894 6.83214C105.644 6.6872 105.374 6.57985 105.093 6.51353C104.719 6.4222 104.335 6.37807 103.95 6.38217C103.548 6.37733 103.149 6.45734 102.779 6.61699C102.412 6.7755 102.087 7.01875 101.832 7.32683C101.542 7.68524 101.323 8.09565 101.188 8.53602C101.021 9.09712 100.942 9.68083 100.956 10.2661C100.941 10.8477 101.013 11.4283 101.167 11.9891C101.285 12.4274 101.478 12.842 101.737 13.2147C101.953 13.5205 102.239 13.7707 102.57 13.9445C102.876 14.0995 103.213 14.1808 103.555 14.182C103.789 14.1844 104.022 14.1694 104.254 14.1373C104.404 14.1242 104.55 14.081 104.684 14.0102V10.9238H103.063V9.28607H106.628V15.4069C106.251 15.6022 105.849 15.7442 105.433 15.829Z" fill="#006CB7"/>
<path d="M115.289 6.54004V15.8191H113.221V6.54004H110.965V4.73035H117.521V6.54004H115.289Z" fill="#006CB7"/>
<path d="M125.485 15.8191L124.706 13.231H121.024L120.248 15.8191H118.086L121.639 4.73033H124.079L127.643 15.8191H125.485ZM124.617 4.35584L122.896 3.02409L121.167 4.36421L120.494 3.73679L122.157 2.06683C122.246 1.96377 122.356 1.88142 122.479 1.82562C122.603 1.76982 122.737 1.74196 122.873 1.744C123.006 1.74314 123.138 1.77161 123.26 1.8274C123.381 1.88318 123.488 1.96492 123.574 2.06683L125.235 3.73679L124.617 4.35584ZM123.172 7.85367C123.123 7.69991 123.08 7.54479 123.043 7.38967C123.007 7.24454 122.978 7.09762 122.957 6.9495C122.928 6.79438 122.9 6.64899 122.88 6.5079H122.851C122.831 6.64906 122.802 6.79409 122.777 6.9495C122.754 7.08644 122.728 7.2304 122.691 7.38967C122.655 7.54648 122.611 7.70135 122.559 7.85367L121.445 11.6393H124.286L123.172 7.85367Z" fill="#006CB7"/>
<path d="M138.057 15.8191L137.299 8.76201C137.279 8.58738 137.265 8.40991 137.256 8.22961C137.244 8.0493 137.233 7.8886 137.227 7.75166C137.216 7.57701 137.204 7.41345 137.193 7.25833H137.167C137.144 7.41345 137.115 7.57701 137.078 7.75166C137.038 7.8886 136.998 8.0493 136.955 8.22961C136.909 8.40984 136.864 8.58736 136.812 8.76201L134.799 15.8191H133.474L131.452 8.76201C131.401 8.58736 131.352 8.40984 131.303 8.22961C131.257 8.0493 131.22 7.8886 131.189 7.75166C131.154 7.57701 131.12 7.41345 131.097 7.25833H131.072C131.063 7.41345 131.051 7.57701 131.04 7.75166C131.034 7.8886 131.02 8.0493 131.003 8.22961C130.994 8.40984 130.983 8.58736 130.96 8.76201L130.216 15.8191H128.283L129.612 4.73035H131.963L133.809 11.2131C133.861 11.3696 133.907 11.536 133.944 11.6967C133.978 11.863 134.013 12.0181 134.041 12.1662C134.078 12.3213 134.107 12.481 134.13 12.6358H134.161C134.173 12.4773 134.199 12.3201 134.239 12.1662C134.265 12.0181 134.296 11.863 134.333 11.6967C134.373 11.536 134.413 11.3696 134.465 11.2131L136.306 4.73035H138.648L139.985 15.8191H138.057Z" fill="#006CB7"/>
<path d="M144.465 15.8191V4.73035H146.55V14.0094H149.857V15.8191H144.465Z" fill="#006CB7"/>
<path d="M158.556 5.77012V12.5449C158.567 13.0454 158.472 13.5425 158.278 14.0039C158.104 14.4134 157.843 14.7801 157.514 15.0785C157.175 15.3738 156.782 15.5993 156.357 15.7423C155.889 15.8987 155.398 15.976 154.905 15.9713C154.417 15.9763 153.932 15.8989 153.47 15.7423C153.047 15.6006 152.656 15.3748 152.322 15.0785C151.992 14.7802 151.731 14.4135 151.558 14.0039C151.362 13.5427 151.267 13.0456 151.277 12.5449V4.73036H153.365V12.5617C153.353 12.7737 153.387 12.9857 153.464 13.1833C153.542 13.3809 153.661 13.5594 153.814 13.7065C154.109 13.9836 154.501 14.1337 154.905 14.1243C155.316 14.1343 155.715 13.9846 156.019 13.7065C156.172 13.5594 156.291 13.3809 156.369 13.1833C156.446 12.9857 156.48 12.7737 156.468 12.5617V4.73036H157.68L158.118 3.94332C158.277 3.8374 158.453 3.75993 158.639 3.71436C158.882 3.65066 159.135 3.63031 159.386 3.65426C159.61 3.6644 159.828 3.72611 160.024 3.83457C160.185 3.93102 160.271 4.0206 160.285 4.10288L158.556 5.77012Z" fill="#006CB7"/>
<path d="M167.509 14.0038C167.335 14.4136 167.073 14.7804 166.742 15.0785C166.404 15.375 166.011 15.6007 165.585 15.7423C165.119 15.8984 164.63 15.9758 164.139 15.9712C163.649 15.9762 163.163 15.8988 162.699 15.7423C162.276 15.6005 161.887 15.3747 161.554 15.0785C161.222 14.7805 160.959 14.4138 160.783 14.0038C160.592 13.5417 160.497 13.0451 160.505 12.5449V4.73035H162.596V12.5617C162.584 12.7734 162.618 12.9851 162.695 13.1826C162.772 13.3801 162.89 13.5588 163.043 13.7065C163.339 13.9846 163.733 14.1347 164.139 14.1243C164.548 14.1348 164.945 13.9849 165.244 13.7065C165.399 13.5601 165.519 13.3819 165.598 13.1842C165.676 12.9865 165.711 12.7741 165.699 12.5617V4.73035H167.784V12.5449C167.793 13.0449 167.7 13.5415 167.509 14.0038Z" fill="#006CB7"/>
<path d="M178.178 15.8191L174.799 10.3104H174.77V15.8191H172.683V4.73035H174.77V9.75561H174.799L178.138 4.73035H180.464L176.896 10.0309L180.546 15.8192L178.178 15.8191Z" fill="#006CB7"/>
<path d="M186.009 11.4675V15.8191H183.941V11.4675L180.783 4.73037H183.016L184.946 9.29729H184.978L186.936 4.73037H189.173L186.009 11.4675ZM184.523 4.16026L185.413 2.15073C185.526 1.99118 185.679 1.86423 185.856 1.78275C186.034 1.70127 186.23 1.66814 186.424 1.68673C186.894 1.68673 187.183 1.84185 187.283 2.15073L185.496 4.16842L184.523 4.16026Z" fill="#006CB7"/>
<path d="M68.5252 37.3147C68.0907 37.4339 67.6415 37.4917 67.191 37.4865C66.6239 37.4879 66.0632 37.3668 65.5473 37.1315C65.0209 36.886 64.5591 36.5209 64.1987 36.0654C63.7868 35.5333 63.4789 34.9284 63.291 34.2823C63.0597 33.461 62.9498 32.6102 62.9648 31.7571C62.9497 30.9048 63.0596 30.055 63.291 29.2347C63.4762 28.5845 63.7843 27.9759 64.1987 27.4418C64.5569 26.9851 65.0193 26.6209 65.5473 26.3797C66.0634 26.1454 66.6241 26.0254 67.191 26.0278C67.6334 26.0256 68.0742 26.0815 68.5021 26.1941C68.8527 26.2808 69.186 26.4268 69.4873 26.6259L68.8403 28.3532C68.6645 28.2171 68.4656 28.1139 68.253 28.0485C67.9903 27.9555 67.7133 27.9092 67.4345 27.9116C67.0944 27.9136 66.7606 28.0039 66.4659 28.1737C66.1711 28.3434 65.9255 28.5868 65.7531 28.88C65.2562 29.7487 65.0272 30.7449 65.0949 31.7434C65.0269 32.7396 65.256 33.7336 65.7533 34.5994C65.9281 34.8897 66.1745 35.1301 66.469 35.2977C66.7634 35.4654 67.0959 35.5545 67.4347 35.5566C67.7131 35.5583 67.9897 35.5135 68.2533 35.4239C68.4659 35.3596 68.6649 35.2568 68.8405 35.1207L69.4876 36.8842C69.1943 37.0826 68.8686 37.2283 68.5252 37.3147Z" fill="#006CB7"/>
<path d="M76.3194 37.2968V32.5648H73.0608V37.2968H70.9732V26.2078H73.0608V30.7914H76.3197V26.2078H78.3837V37.2968H76.3194Z" fill="#006CB7"/>
<path d="M87.622 27.2474V34.0222C87.6313 34.5223 87.5376 35.0189 87.3467 35.4812C87.1702 35.8898 86.9087 36.2562 86.5795 36.5558C86.2411 36.8505 85.8483 37.076 85.4231 37.2196C84.9542 37.376 84.4626 37.4533 83.9683 37.4486C83.4816 37.4534 82.9976 37.376 82.5367 37.2196C82.1131 37.0768 81.7222 36.8511 81.3866 36.5558C81.0551 36.2583 80.7931 35.8914 80.6194 35.4812C80.429 35.0188 80.3354 34.5222 80.3446 34.0222V26.2077H82.4289V34.039C82.4179 34.251 82.4525 34.4629 82.5304 34.6604C82.6082 34.8579 82.7275 35.0364 82.8802 35.1838C83.1741 35.46 83.5645 35.6099 83.9677 35.6016C84.3803 35.6142 84.7814 35.4642 85.0843 35.1838C85.2373 35.0368 85.3565 34.8583 85.4336 34.6606C85.5107 34.4629 85.5439 34.2508 85.5308 34.039V26.2077H86.7452L87.1861 25.4206C87.345 25.3141 87.5214 25.2366 87.7073 25.1917C87.9499 25.1278 88.2018 25.1075 88.4515 25.1316C88.6744 25.1421 88.8919 25.2038 89.0872 25.3119C89.2535 25.4083 89.3395 25.4979 89.3507 25.5802L87.622 27.2474ZM83.2179 25.6376L84.0997 23.628C84.2132 23.4687 84.3666 23.3419 84.5446 23.2605C84.7225 23.1791 84.9187 23.1458 85.1135 23.164C85.5887 23.164 85.8696 23.3192 85.9667 23.628L84.18 25.6457L83.2179 25.6376Z" fill="#006CB7"/>
<path d="M95.7768 37.2968L91.9799 30.7232C91.8848 30.5758 91.7988 30.4228 91.7223 30.2649C91.6476 30.1111 91.5792 29.9756 91.5337 29.8582C91.47 29.7129 91.4127 29.5661 91.3555 29.4236H91.3101C91.3101 29.5661 91.3268 29.7213 91.3387 29.8875V30.3515C91.3555 30.5233 91.3555 30.695 91.3555 30.8672V37.2968H89.5751V26.2078H91.3555L95.0664 32.6067C95.1523 32.7618 95.2381 32.9169 95.313 33.0706C95.3871 33.2202 95.4561 33.3599 95.5192 33.4829C95.5876 33.6296 95.6561 33.7691 95.7078 33.9133H95.742C95.7309 33.7694 95.7309 33.6128 95.7309 33.4382C95.7197 33.2942 95.7078 33.1335 95.7078 32.9561V26.2078H97.4944V37.2968H95.7768Z" fill="#006CB7"/>
<path d="M105.706 37.3063C105.139 37.4329 104.558 37.4933 103.977 37.4865C103.285 37.4939 102.598 37.3573 101.961 37.0855C101.372 36.8254 100.852 36.4299 100.444 35.9312C100.005 35.3999 99.6756 34.7866 99.4758 34.1271C99.2422 33.3591 99.1284 32.5597 99.1383 31.757C99.1268 30.9493 99.2487 30.1452 99.4989 29.3771C99.7136 28.7132 100.06 28.0995 100.518 27.573C100.951 27.0751 101.492 26.6819 102.099 26.4229C102.754 26.1517 103.457 26.0172 104.166 26.0275C104.682 26.0251 105.197 26.0809 105.701 26.1937C106.093 26.2741 106.468 26.4201 106.812 26.6255L106.17 28.3095C105.918 28.165 105.646 28.0577 105.363 27.9909C104.99 27.8991 104.607 27.855 104.223 27.8595C103.821 27.8542 103.423 27.9342 103.055 28.0943C102.686 28.2528 102.361 28.496 102.104 28.8042C101.815 29.1621 101.597 29.5727 101.463 30.0133C101.294 30.574 101.215 31.1579 101.228 31.7434C101.217 32.3249 101.288 32.905 101.44 33.4664C101.558 33.9041 101.75 34.3186 102.007 34.692C102.225 34.9968 102.512 35.2467 102.843 35.4218C103.148 35.5765 103.486 35.6579 103.828 35.6594C104.06 35.6619 104.292 35.6469 104.521 35.6146C104.673 35.6008 104.821 35.5577 104.956 35.4875V32.4012H103.336V30.7634H106.903V36.8842C106.525 37.079 106.123 37.221 105.706 37.3063Z" fill="#006CB7"/>
<path d="M117.263 37.2968L113.884 31.7875H113.849V37.2968H111.765V26.2078H113.849V31.233H113.884L117.217 26.2078H119.542L115.974 31.5085L119.622 37.2968H117.263Z" fill="#006CB7"/>
<path d="M126.081 37.2968V32.5648H122.823V37.2968H120.739V26.2078H122.823V30.7914H126.081V26.2078H128.154V37.2968H126.081Z" fill="#006CB7"/>
<path d="M138.044 31.7571C138.048 32.5161 137.963 33.273 137.792 34.0125C137.644 34.6577 137.382 35.2713 137.019 35.825C136.694 36.3259 136.255 36.7421 135.737 37.0394C135.182 37.347 134.555 37.5014 133.921 37.4866C133.289 37.5021 132.664 37.3477 132.112 37.0394C131.592 36.7426 131.15 36.3263 130.823 35.825C130.462 35.271 130.202 34.6573 130.055 34.0125C129.72 32.5243 129.72 30.9801 130.055 29.4918C130.203 28.8462 130.463 28.2317 130.823 27.6765C131.151 27.1768 131.592 26.7622 132.112 26.4674C132.665 26.163 133.289 26.0113 133.921 26.0278C134.554 26.0122 135.181 26.164 135.737 26.468C136.254 26.7633 136.694 27.1779 137.019 27.6772C137.382 28.232 137.643 28.8465 137.792 29.4925C137.963 30.2351 138.048 30.995 138.044 31.7571ZM135.96 31.7571C135.965 31.2336 135.919 30.7108 135.823 30.1962C135.757 29.7782 135.629 29.3723 135.445 28.9916C135.301 28.6835 135.082 28.4164 134.809 28.2145C134.547 28.0361 134.238 27.9406 133.921 27.9406C133.604 27.9406 133.295 28.0361 133.033 28.2145C132.762 28.4168 132.545 28.6839 132.404 28.9916C132.212 29.3705 132.081 29.7769 132.014 30.1962C131.846 31.2286 131.846 32.2814 132.014 33.3138C132.081 33.7336 132.212 34.1404 132.404 34.5198C132.546 34.8257 132.763 35.0913 133.033 35.2925C133.294 35.4736 133.604 35.5707 133.921 35.5707C134.239 35.5707 134.548 35.4736 134.809 35.2925C135.082 35.0917 135.3 34.8261 135.445 34.5198C135.629 34.1385 135.757 33.7322 135.823 33.3138C135.918 32.8005 135.964 32.2792 135.96 31.7571H135.96Z" fill="#006CB7"/>
<path d="M146.222 37.2968L145.437 34.7088H141.761L140.982 37.2968H138.823L142.373 26.2081H144.813L148.381 37.2968H146.222ZM143.908 29.3314C143.862 29.1776 143.817 29.0225 143.776 28.8674C143.739 28.7225 143.71 28.5755 143.69 28.4272C143.663 28.2721 143.633 28.1267 143.616 27.9856H143.588C143.565 28.1268 143.542 28.2718 143.507 28.4272C143.488 28.5756 143.46 28.7227 143.422 28.8674C143.388 29.0242 143.346 29.1791 143.296 29.3314L142.18 33.1171H145.025L143.908 29.3314ZM142.758 25.638L143.639 23.6284C143.753 23.469 143.906 23.3423 144.084 23.2609C144.262 23.1794 144.458 23.1462 144.653 23.1644C145.128 23.1644 145.415 23.3191 145.512 23.6284L143.719 25.6461L142.758 25.638Z" fill="#006CB7"/>
<path d="M155.648 37.2968L151.857 30.7232C151.762 30.5758 151.676 30.4228 151.599 30.2649C151.525 30.1111 151.462 29.9756 151.41 29.8582C151.353 29.7129 151.29 29.5661 151.233 29.4236H151.193C151.192 29.5786 151.2 29.7334 151.216 29.8875C151.216 30.0273 151.216 30.1796 151.221 30.3515C151.227 30.5235 151.233 30.695 151.233 30.8672V37.2968H149.452V26.2078H151.233L154.949 32.6067C155.029 32.7618 155.11 32.9169 155.19 33.0706C155.259 33.2202 155.333 33.3599 155.396 33.4829C155.465 33.6296 155.528 33.7691 155.591 33.9133H155.619C155.608 33.7694 155.602 33.6128 155.602 33.4382C155.596 33.2942 155.59 33.1335 155.59 32.9561V26.2078H157.372V37.2968H155.648Z" fill="#006CB7"/>
<path d="M166.935 37.2969H164.742L161.466 26.2081H163.705L165.514 33.4231C165.555 33.5978 165.595 33.7781 165.629 33.9681C165.664 34.1541 165.692 34.3258 165.727 34.4796C165.767 34.6626 165.795 34.8471 165.818 35.019H165.852C165.861 34.8373 165.886 34.6568 165.927 34.4796C165.95 34.3258 165.978 34.154 166.013 33.9681C166.059 33.7781 166.105 33.5978 166.156 33.4231L167.942 26.2081H170.193L166.935 37.2969Z" fill="#006CB7"/>
<path d="M171.35 37.2968V26.2078H173.434V37.2968H171.35Z" fill="#006CB7"/>
<path d="M175.387 37.2968V26.2077H181.057V28.0174H177.42V30.7914H180.702V32.5647H177.42V35.4866H181.057V37.2968H175.387ZM179.974 25.8335L178.251 24.5018L176.521 25.8417L175.851 25.2143L177.512 23.5444C177.601 23.4419 177.711 23.3599 177.834 23.3042C177.958 23.2484 178.092 23.2202 178.227 23.2215C178.362 23.2226 178.494 23.252 178.617 23.3076C178.739 23.3632 178.848 23.4439 178.937 23.5444L180.593 25.2143L179.974 25.8335ZM179.206 38.7291C179.208 38.8556 179.183 38.981 179.134 39.0976C179.084 39.2141 179.012 39.3194 178.921 39.4069C178.734 39.5888 178.483 39.6906 178.222 39.6906C177.961 39.6906 177.71 39.5888 177.523 39.4069C177.43 39.3206 177.356 39.2157 177.305 39.099C177.255 38.9822 177.23 38.8562 177.231 38.7291C177.229 38.6021 177.254 38.4761 177.304 38.3594C177.355 38.2428 177.429 38.1382 177.523 38.0528C177.713 37.8767 177.963 37.7789 178.222 37.7789C178.481 37.7789 178.731 37.8767 178.921 38.0528C179.013 38.1394 179.086 38.2443 179.135 38.3607C179.184 38.4771 179.208 38.6025 179.206 38.7289V38.7291Z" fill="#006CB7"/>
<path d="M186.485 28.0175V37.2968H184.418V28.0175H182.162V26.2078H188.725V28.0175H186.485Z" fill="#006CB7"/>
<path d="M199.301 37.2968L195.51 30.723C195.417 30.5753 195.333 30.4223 195.258 30.2646C195.178 30.1109 195.115 29.9753 195.064 29.8579C195 29.7126 194.943 29.5659 194.886 29.4233H194.846C194.846 29.5659 194.858 29.721 194.869 29.8873C194.869 30.027 194.869 30.1793 194.88 30.3513C194.88 30.523 194.886 30.6947 194.886 30.8669V37.2968H193.105V26.2078H194.886L198.603 32.6067C198.688 32.7618 198.763 32.9169 198.843 33.0706C198.917 33.2202 198.986 33.3599 199.049 33.4829C199.118 33.6296 199.187 33.7691 199.244 33.9133H199.272C199.267 33.7694 199.261 33.6128 199.261 33.4382C199.25 33.2942 199.244 33.1335 199.244 32.9561V26.2078H201.031V37.2968H199.301Z" fill="#006CB7"/>
<path d="M209.495 37.2969L208.721 34.7088H205.045L204.261 37.2969H202.102L205.652 26.2081H208.092L211.665 37.2969H209.495ZM207.192 29.3314C207.141 29.1777 207.095 29.0225 207.055 28.8674C207.021 28.7081 206.992 28.5642 206.975 28.4272C206.941 28.2721 206.918 28.1267 206.9 27.9856H206.866C206.843 28.1268 206.82 28.2718 206.792 28.4272C206.775 28.5642 206.74 28.7081 206.706 28.8674C206.67 29.0242 206.626 29.1791 206.574 29.3314L205.458 33.1171H208.298L207.192 29.3314Z" fill="#006CB7"/>
<path d="M222.076 37.2969L221.314 30.2397C221.297 30.0651 221.28 29.8876 221.268 29.7073C221.263 29.527 221.251 29.3663 221.24 29.2294C221.228 29.0547 221.223 28.8912 221.211 28.7357H221.182C221.16 28.8908 221.131 29.0544 221.091 29.2294C221.057 29.3663 221.017 29.527 220.976 29.7073C220.925 29.8876 220.879 30.0651 220.833 30.2397L218.818 37.2969H217.483L215.467 30.2397C215.416 30.0651 215.364 29.8876 215.318 29.7073C215.273 29.5271 215.233 29.3663 215.209 29.2294C215.167 29.0672 215.137 28.9022 215.118 28.7357H215.084C215.078 28.8908 215.066 29.0544 215.061 29.2294C215.044 29.3663 215.037 29.527 215.021 29.7073C215.009 29.8876 214.992 30.0651 214.969 30.2397L214.225 37.2969H212.295L213.623 26.2081H215.977L217.821 32.6909C217.878 32.8487 217.924 33.0102 217.958 33.1744C217.992 33.3407 218.027 33.4958 218.055 33.6439C218.095 33.7981 218.124 33.9551 218.141 34.1135H218.176C218.186 33.9546 218.213 33.7972 218.256 33.6439C218.274 33.4853 218.305 33.3284 218.347 33.1744C218.388 33.0137 218.433 32.8473 218.479 32.6909L220.323 26.2081H222.66L224 37.2969H222.076Z" fill="#006CB7"/>
<defs>
<linearGradient id="paint0_linear" x1="17.6165" y1="8.27462" x2="38.7233" y2="42.8464" gradientUnits="userSpaceOnUse">
<stop offset="0.0381" stop-color="#FFDD00"/>
<stop offset="0.1837" stop-color="#FCC208"/>
<stop offset="0.4959" stop-color="#F47C1D"/>
<stop offset="0.545" stop-color="#F37021"/>
<stop offset="1" stop-color="#FFDD00"/>
</linearGradient>
<linearGradient id="paint1_linear" x1="35.6364" y1="38.78" x2="14.1795" y2="1.67022" gradientUnits="userSpaceOnUse">
<stop offset="0.1298" stop-color="#231F20"/>
<stop offset="0.735" stop-color="#BFBEBE"/>
<stop offset="1" stop-color="white"/>
</linearGradient>
<linearGradient id="paint2_linear" x1="21.8736" y1="46.8046" x2="30.6862" y2="-3.33907" gradientUnits="userSpaceOnUse">
<stop offset="0.0381" stop-color="#FFDD00"/>
<stop offset="0.3634" stop-color="#FCC20A"/>
<stop offset="1" stop-color="#F58220"/>
</linearGradient>
<linearGradient id="paint3_linear" x1="434.712" y1="1175.61" x2="-186.597" y2="633.844" gradientUnits="userSpaceOnUse">
<stop offset="0.0381" stop-color="#FFDD00"/>
<stop offset="0.3634" stop-color="#FCC20A"/>
<stop offset="1" stop-color="#F58220"/>
</linearGradient>
<linearGradient id="paint4_linear" x1="30.7835" y1="-8.42861" x2="25.3406" y2="22.5413" gradientUnits="userSpaceOnUse">
<stop offset="0.0381" stop-color="#FFDD00"/>
<stop offset="0.3145" stop-color="#FCC208"/>
<stop offset="0.9069" stop-color="#F47C1D"/>
<stop offset="1" stop-color="#F37021"/>
</linearGradient>
<linearGradient id="paint5_linear" x1="209.697" y1="-45.787" x2="115.339" y2="244.018" gradientUnits="userSpaceOnUse">
<stop offset="0.0381" stop-color="#FFDD00"/>
<stop offset="0.3145" stop-color="#FCC208"/>
<stop offset="0.9069" stop-color="#F47C1D"/>
<stop offset="1" stop-color="#F37021"/>
</linearGradient>
<linearGradient id="paint6_linear" x1="574.21" y1="-161.937" x2="407.023" y2="585.752" gradientUnits="userSpaceOnUse">
<stop offset="0.0381" stop-color="#FFDD00"/>
<stop offset="0.3145" stop-color="#FCC208"/>
<stop offset="0.9069" stop-color="#F47C1D"/>
<stop offset="1" stop-color="#F37021"/>
</linearGradient>
<linearGradient id="paint7_linear" x1="38.8662" y1="46.185" x2="40.7573" y2="-5.18592" gradientUnits="userSpaceOnUse">
<stop stop-color="#004282"/>
<stop offset="0.3214" stop-color="#004A8F"/>
<stop offset="0.6454" stop-color="#2188C1"/>
<stop offset="1" stop-color="#44C8F5"/>
</linearGradient>
<linearGradient id="paint8_linear" x1="37.8702" y1="6.11318" x2="27.9371" y2="66.5329" gradientUnits="userSpaceOnUse">
<stop offset="0.1604" stop-color="#004282"/>
<stop offset="0.3376" stop-color="#006AA6"/>
<stop offset="0.5329" stop-color="#008FC7"/>
<stop offset="0.7147" stop-color="#00AADF"/>
<stop offset="0.8759" stop-color="#00BAEE"/>
<stop offset="1" stop-color="#00C0F3"/>
</linearGradient>
<linearGradient id="paint9_linear" x1="119.647" y1="269.577" x2="113.275" y2="247.822" gradientUnits="userSpaceOnUse">
<stop stop-color="#231F20"/>
<stop offset="0.645833" stop-color="#BFBEBE"/>
<stop offset="0.864583" stop-color="white" stop-opacity="0.5"/>
<stop offset="1" stop-color="white" stop-opacity="0.2"/>
</linearGradient>
<linearGradient id="paint10_linear" x1="46.0201" y1="2.34016" x2="37.3692" y2="41.9379" gradientUnits="userSpaceOnUse">
<stop offset="0.1604" stop-color="#0072BC"/>
<stop offset="1" stop-color="#14B1E7"/>
</linearGradient>
<linearGradient id="paint11_linear" x1="12.6493" y1="-4.18511" x2="10.7582" y2="47.1859" gradientUnits="userSpaceOnUse">
<stop stop-color="#004282"/>
<stop offset="0.3214" stop-color="#004A8F"/>
<stop offset="0.6454" stop-color="#2188C1"/>
<stop offset="1" stop-color="#44C8F5"/>
</linearGradient>
<linearGradient id="paint12_linear" x1="13.6452" y1="35.8869" x2="23.5783" y2="-24.5329" gradientUnits="userSpaceOnUse">
<stop offset="0.1604" stop-color="#004282"/>
<stop offset="0.3376" stop-color="#006AA6"/>
<stop offset="0.5329" stop-color="#008FC7"/>
<stop offset="0.7147" stop-color="#00AADF"/>
<stop offset="0.8759" stop-color="#00BAEE"/>
<stop offset="1" stop-color="#00C0F3"/>
</linearGradient>
<linearGradient id="paint13_linear" x1="-68.1311" y1="-227.577" x2="-61.7593" y2="-205.822" gradientUnits="userSpaceOnUse">
<stop stop-color="#231F20"/>
<stop offset="0.645833" stop-color="#BFBEBE"/>
<stop offset="0.864583" stop-color="white" stop-opacity="0.5"/>
<stop offset="1" stop-color="white" stop-opacity="0.2"/>
</linearGradient>
<linearGradient id="paint14_linear" x1="5.49526" y1="39.6598" x2="14.1462" y2="0.0620055" gradientUnits="userSpaceOnUse">
<stop offset="0.1604" stop-color="#0072BC"/>
<stop offset="1" stop-color="#14B1E7"/>
</linearGradient>
<linearGradient id="paint15_linear" x1="-53440.3" y1="50423.3" x2="-53312" y2="49957.9" gradientUnits="userSpaceOnUse">
<stop offset="0.0381" stop-color="#FFDD00"/>
<stop offset="0.3145" stop-color="#FCC208"/>
<stop offset="0.9069" stop-color="#F47C1D"/>
<stop offset="1" stop-color="#F37021"/>
</linearGradient>
<linearGradient id="paint16_linear" x1="-34529.4" y1="39928" x2="-34435" y2="39638.1" gradientUnits="userSpaceOnUse">
<stop offset="0.0381" stop-color="#FFDD00"/>
<stop offset="0.3145" stop-color="#FCC208"/>
<stop offset="0.9069" stop-color="#F47C1D"/>
<stop offset="1" stop-color="#F37021"/>
</linearGradient>
<linearGradient id="paint17_linear" x1="-85148.9" y1="63582.7" x2="-84981.7" y2="62834.9" gradientUnits="userSpaceOnUse">
<stop offset="0.0381" stop-color="#FFDD00"/>
<stop offset="0.3145" stop-color="#FCC208"/>
<stop offset="0.9069" stop-color="#F47C1D"/>
<stop offset="1" stop-color="#F37021"/>
</linearGradient>
</defs>
</svg>
